<?xml version="1.0"?>
<COLLADA xmlns="http://www.collada.org/2005/11/COLLADASchema" version="1.4.1">
    <asset>
        <contributor>
            <authoring_tool>Supear Mardian SixDaeFour</authoring_tool>
        </contributor>
        <created>2026-04-11T02:17:49.368Z</created>
        <modified>2026-04-11T02:17:49.368Z</modified>
		<unit meter="0.01" name="centimeter" />
        <up_axis>Y_UP</up_axis>
    </asset>
    <library_images>
        <image id="tex_0">
            <init_from>tex_7004468.png</init_from>
        </image>
    </library_images>
    <library_effects>
        <effect id="effect0">
            <profile_COMMON>
                <newparam sid="surface0">
                    <surface type="2D">
                        <init_from>tex_0</init_from>
                    </surface>
                </newparam>
                <newparam sid="sampler0">
                    <sampler2D>
                        <source>surface0</source>
                    </sampler2D>
                </newparam>
                <technique sid="COMMON">
                    <blinn>
                        <diffuse>
                            <texture texture="sampler0" texcoord="UVSET0"></texture>
                        </diffuse>
                    </blinn>
                </technique>
            </profile_COMMON>
        </effect>
    </library_effects>
    <library_materials>
        <material id="mat0" name="Mat0">
            <instance_effect url="#effect0"/>
        </material>
    </library_materials>
    <library_geometries>
        <geometry id="meshMesh0_1">
            <mesh>
                <source id="pointsMesh0_1">
                    <float_array id="pointarrayMesh0_1" count="48">-163 -122 0 -122 -81 30 -163 122 0 -143 102 0 -133 92 10 -133 -92 10 133 -92 10 133 92 10 143 -102 0 143 102 0 -143 -102 0 163 122 0 163 -122 0 122 -81 30 -122 81 30 122 81 30</float_array>
                    <technique_common>
                        <accessor count="16" source="#pointarrayMesh0_1" stride="3">
                            <param name="X" type="float"/>
                            <param name="Y" type="float"/>
                            <param name="Z" type="float"/>
                        </accessor>
                    </technique_common>
                </source>
                <source id="uvsMesh0_1">
                    <float_array id="uvarrayMesh0_1" count="32">0.966796875 1 0.841796875 0.865234375 0.966796875 0.033203125 0.904296875 0.1171875 0.873046875 0.158203125 0.873046875 0.90625 0.0625 0.90625 0.0625 0.158203125 0.03125 0.947265625 0.03125 0.1171875 0.904296875 0.947265625 0 0.033203125 0 1 0.09375 0.865234375 0.841796875 0.19921875 0.09375 0.19921875</float_array>
                    <technique_common>
                        <accessor count="16" source="#uvarrayMesh0_1" stride="2">
                            <param name="S" type="float"/>
                            <param name="T" type="float"/>
                        </accessor>
                    </technique_common>
                </source>
                <vertices id="verticesMesh0_1">
                    <input semantic="POSITION" source="#pointsMesh0_1"/>
                </vertices>
                <polylist count="28" material="Material1">
                    <input offset="0" semantic="VERTEX" source="#verticesMesh0_1"/>
                    <input offset="1" semantic="TEXCOORD" source="#uvsMesh0_1" set="0"/>
                    <vcount>3 3 3 3 3 3 3 3 3 3 3 3 3 3 3 3 3 3 3 3 3 3 3 3 3 3 3 3</vcount>
                    <p>0 0 1 1 2 2 3 3 4 4 5 5 4 4 6 6 5 5 4 4 7 7 6 6 7 7 4 4 3 3 8 8 7 7 9 9 8 8 6 6 7 7 7 7 3 3 9 9 10 10 6 6 8 8 10 10 5 5 6 6 3 3 5 5 10 10 11 11 3 3 2 2 11 11 9 9 3 3 11 11 8 8 9 9 11 11 12 12 8 8 2 2 3 3 10 10 2 2 10 10 0 0 10 10 8 8 12 12 10 10 12 12 0 0 12 12 13 13 1 1 1 1 14 14 2 2 14 14 1 1 13 13 0 0 12 12 1 1 14 14 15 15 11 11 2 2 14 14 11 11 15 15 14 14 13 13 11 11 15 15 12 12 15 15 13 13 12 12</p>
                </polylist>
            </mesh>
        </geometry>
    </library_geometries>
    <library_visual_scenes>
        <visual_scene id="VisualSceneNode">
            <node id="node_Node0" name="Node0_start">
                <node id="node_Node1" name="Node1_scale">
                    <scale sid="scale">8 8 8</scale>
                    <node id="node_Node2" name="Node2_display">
                        <node id="node_Node3" name="Node3_display">
                            <node id="node_Mesh0_1" name="Mesh0">
                                <instance_geometry url="#meshMesh0_1">
                                    <bind_material>
                                        <technique_common>
                                            <instance_material symbol="Material1" target="#mat0">
                                                <bind_vertex_input semantic="UVSET0" input_semantic="TEXCOORD" input_set="0"/>
                                            </instance_material>
                                        </technique_common>
                                    </bind_material>
                                </instance_geometry>
                            </node>
                        </node>
                    </node>
                </node>
            </node>
        </visual_scene>
    </library_visual_scenes>
    <scene>
        <instance_visual_scene url="#VisualSceneNode"/>
    </scene>
</COLLADA>
