# WaveFront *.obj file (generated by CINEMA 4D)
mtllib Switch.mtl

g Mesh1
usemtl Mat1
v 61 36 61
v -60 36 61
v 61 36 -60
v -60 36 -60

vt 1.185547 -0.064453 0
vt -0.310547 -0.064453 0
vt 1.185547 1.130859 0
vt -0.310547 1.130859 0

f 3/3 2/2 1/1 
f 3/3 4/4 2/2 

g Mesh0
usemtl Mat0
v 61 36 61
v 61 36 -60
v 102 0 -101
v -101 0 -101
v -60 36 -60
v -101 0 -101
v -60 36 -60
v -101 0 102
v -60 36 61
v 61 36 61
v 102 0 102
v 102 0 102

vt 2.589844 -2.734375 0
vt 2.589844 3.242188 0
vt 0 5.242188 0
vt 0 -4.734375 0
vt 2.589844 -2.734375 0
vt 0 5.242188 0
vt 2.589844 3.242188 0
vt 0 -4.734375 0
vt 2.589844 -2.734375 0
vt 2.589844 3.242188 0
vt 0 5.242188 0
vt 0 -4.734375 0

f 7/7 6/6 5/5 
f 8/8 6/6 7/7 
f 8/8 9/9 6/6 
f 12/12 11/11 10/10 
f 12/12 13/13 11/11 
f 15/15 14/14 13/13 
f 15/15 13/13 12/12 
f 7/7 5/5 16/16 

