# WaveFront *.obj file (generated by CINEMA 4D)
mtllib Block.mtl

g Mesh7
usemtl Mat7
v 26 52 -25
v 26 52 26
v -25 52 26
v -25 52 -25
v 26 1 -25
v -25 1 -25
v -25 1 26
v 26 1 26

vt 0.983398 1 0
vt 0.983398 0.03125 0
vt 0 0.03125 0
vt 0 1 0
vt 0.983398 0.03125 0
vt 0 0.03125 0
vt 0 1 0
vt 0.983398 1 0

f 3/3 2/2 1/1 
f 3/3 1/1 4/4 
f 7/7 6/6 5/5 
f 7/7 5/5 8/8 

g Mesh6
usemtl Mat6
v -25 52 -25
v -25 52 26
v -25 1 26
v -25 52 26
v 26 52 26
v 26 1 26
v -25 1 26
v 26 52 26
v 26 52 -25
v 26 1 -25
v 26 1 26
v 26 1 -25
v 26 52 -25
v -25 1 -25
v -25 52 -25
v -25 1 -25

vt 0 1 0
vt 0.96875 1 0
vt 0.96875 0.03125 0
vt 0 1 0
vt 0.96875 1 0
vt 0.96875 0.03125 0
vt 0 0.03125 0
vt 0 1 0
vt 0.96875 1 0
vt 0.96875 0.03125 0
vt 0 0.03125 0
vt 0 0.03125 0
vt 0 1 0
vt 0.96875 0.03125 0
vt 0.96875 1 0
vt 0 0.03125 0

f 11/11 10/10 9/9 
f 14/14 13/13 12/12 
f 14/14 12/12 15/15 
f 18/18 17/17 16/16 
f 18/18 16/16 19/19 
f 22/22 21/21 20/20 
f 22/22 23/23 21/21 
f 11/11 9/9 24/24 

g Mesh5
usemtl Mat5
v -25 1 26
v 26 1 26
v 26 1 -25
v -25 1 -25
v 26 52 26
v -25 52 26
v -25 52 -25
v 26 52 -25

vt 0 1 0
vt 0.96875 1 0
vt 0.96875 0.016602 0
vt 0 0.016602 0
vt 0.96875 0.016602 0
vt 0 0.016602 0
vt 0 1 0
vt 0.96875 1 0

f 27/27 26/26 25/25 
f 27/27 25/25 28/28 
f 31/31 30/30 29/29 
f 31/31 29/29 32/32 

g Mesh4
usemtl Mat4
v 26 52 -25
v -25 52 -25
v -25 1 -25
v 26 52 26
v 26 1 26
v -25 1 26
v -25 52 26
v 26 1 -25
v 26 1 26
v 26 52 -25
v 26 52 26
v -25 52 26
v -25 1 26
v -25 1 -25
v -25 52 -25
v 26 1 -25

vt 0 1 0
vt 0.96875 1 0
vt 0.96875 0.03125 0
vt 0.96875 1 0
vt 0.96875 0.03125 0
vt 0 0.03125 0
vt 0 1 0
vt 0.96875 0.03125 0
vt 0 0.03125 0
vt 0.96875 1 0
vt 0 1 0
vt 0.96875 1 0
vt 0.96875 0.03125 0
vt 0 0.03125 0
vt 0 1 0
vt 0 0.03125 0

f 35/35 34/34 33/33 
f 38/38 37/37 36/36 
f 38/38 36/36 39/39 
f 42/42 41/41 40/40 
f 42/42 43/43 41/41 
f 46/46 45/45 44/44 
f 46/46 44/44 47/47 
f 35/35 33/33 48/48 

g Mesh3
usemtl Mat3
v 26 52 -25
v 26 52 26
v -25 52 26
v -25 52 -25
v 26 1 -25
v -25 1 -25
v -25 1 26
v 26 1 26

vt 0.983398 1 0
vt 0.983398 0.03125 0
vt 0 0.03125 0
vt 0 1 0
vt 0.983398 0.03125 0
vt 0 0.03125 0
vt 0 1 0
vt 0.983398 1 0

f 51/51 50/50 49/49 
f 51/51 49/49 52/52 
f 55/55 54/54 53/53 
f 55/55 53/53 56/56 

g Mesh2
usemtl Mat2
v -25 52 -25
v -25 52 26
v -25 1 26
v -25 52 26
v 26 52 26
v 26 1 26
v -25 1 26
v 26 52 26
v 26 52 -25
v 26 1 -25
v 26 1 26
v 26 1 -25
v 26 52 -25
v -25 1 -25
v -25 52 -25
v -25 1 -25

vt 0 1 0
vt 0.96875 1 0
vt 0.96875 0.03125 0
vt 0 1 0
vt 0.96875 1 0
vt 0.96875 0.03125 0
vt 0 0.03125 0
vt 0 1 0
vt 0.96875 1 0
vt 0.96875 0.03125 0
vt 0 0.03125 0
vt 0 0.03125 0
vt 0 1 0
vt 0.96875 0.03125 0
vt 0.96875 1 0
vt 0 0.03125 0

f 59/59 58/58 57/57 
f 62/62 61/61 60/60 
f 62/62 60/60 63/63 
f 66/66 65/65 64/64 
f 66/66 64/64 67/67 
f 70/70 69/69 68/68 
f 70/70 71/71 69/69 
f 59/59 57/57 72/72 

g Mesh1
usemtl Mat1
v -25 1 26
v 26 1 26
v 26 1 -25
v -25 1 -25
v 26 52 26
v -25 52 26
v -25 52 -25
v 26 52 -25

vt 0 1 0
vt 0.96875 1 0
vt 0.96875 0.016602 0
vt 0 0.016602 0
vt 0.96875 0.016602 0
vt 0 0.016602 0
vt 0 1 0
vt 0.96875 1 0

f 75/75 74/74 73/73 
f 75/75 73/73 76/76 
f 79/79 78/78 77/77 
f 79/79 77/77 80/80 

g Mesh0
usemtl Mat0
v 26 52 -25
v -25 52 -25
v -25 1 -25
v 26 52 26
v 26 1 26
v -25 1 26
v -25 52 26
v 26 1 -25
v 26 1 26
v 26 52 -25
v 26 52 26
v -25 52 26
v -25 1 26
v -25 1 -25
v -25 52 -25
v 26 1 -25

vt 0 1 0
vt 0.96875 1 0
vt 0.96875 0.03125 0
vt 0.96875 1 0
vt 0.96875 0.03125 0
vt 0 0.03125 0
vt 0 1 0
vt 0.96875 0.03125 0
vt 0 0.03125 0
vt 0.96875 1 0
vt 0 1 0
vt 0.96875 1 0
vt 0.96875 0.03125 0
vt 0 0.03125 0
vt 0 1 0
vt 0 0.03125 0

f 83/83 82/82 81/81 
f 86/86 85/85 84/84 
f 86/86 84/84 87/87 
f 90/90 89/89 88/88 
f 90/90 91/91 89/89 
f 94/94 93/93 92/92 
f 94/94 92/92 95/95 
f 83/83 81/81 96/96 

