<?xml version="1.0"?>
<COLLADA xmlns="http://www.collada.org/2005/11/COLLADASchema" version="1.4.1">
    <asset>
        <contributor>
            <authoring_tool>Supear Mardian SixDaeFour</authoring_tool>
        </contributor>
        <created>2026-03-11T04:36:44.813Z</created>
        <modified>2026-03-11T04:36:44.813Z</modified>
		<unit meter="0.01" name="centimeter" />
        <up_axis>Y_UP</up_axis>
    </asset>
    <library_images>
        <image id="tex_0">
            <init_from>tex_7001800.png</init_from>
        </image>
    </library_images>
    <library_effects>
        <effect id="effect0">
            <profile_COMMON>
                <newparam sid="surface0">
                    <surface type="2D">
                        <init_from>tex_0</init_from>
                    </surface>
                </newparam>
                <newparam sid="sampler0">
                    <sampler2D>
                        <source>surface0</source>
                    </sampler2D>
                </newparam>
                <technique sid="COMMON">
                    <blinn>
                        <diffuse>
                            <texture texture="sampler0" texcoord="UVSET0"></texture>
                        </diffuse>
                    </blinn>
                </technique>
            </profile_COMMON>
        </effect>
    </library_effects>
    <library_materials>
        <material id="mat0" name="Mat0">
            <instance_effect url="#effect0"/>
        </material>
    </library_materials>
    <library_geometries>
        <geometry id="meshMesh0_1">
            <mesh>
                <source id="pointsMesh0_1">
                    <float_array id="pointarrayMesh0_1" count="36">307 0 768 -306 102 819 -306 0 768 307 102 819 307 0 -767 307 102 -818 -306 0 -767 -306 102 -818 307 102 -818 -306 102 -818 -306 102 819 307 102 819</float_array>
                    <technique_common>
                        <accessor count="12" source="#pointarrayMesh0_1" stride="3">
                            <param name="X" type="float"/>
                            <param name="Y" type="float"/>
                            <param name="Z" type="float"/>
                        </accessor>
                    </technique_common>
                </source>
                <source id="uvsMesh0_1">
                    <float_array id="uvarrayMesh0_1" count="24">0 0.04296875 0 0.92578125 0 0.951171875 0 0.017578125 0.935546875 0.04296875 0.966796875 0.017578125 0.935546875 0.951171875 0.966796875 0.92578125 0.966796875 0.017578125 0.966796875 0.92578125 0 0.92578125 0 0.017578125</float_array>
                    <technique_common>
                        <accessor count="12" source="#uvarrayMesh0_1" stride="2">
                            <param name="S" type="float"/>
                            <param name="T" type="float"/>
                        </accessor>
                    </technique_common>
                </source>
                <source id="colorsMesh0_1">
                    <float_array id="colorarrayMesh0_1" count="48">0.5333333333333333 0.5333333333333333 0.5333333333333333 1 0.5333333333333333 0.5333333333333333 0.5333333333333333 1 0.5333333333333333 0.5333333333333333 0.5333333333333333 1 0.5333333333333333 0.5333333333333333 0.5333333333333333 1 0.5333333333333333 0.5333333333333333 0.5333333333333333 1 0.5333333333333333 0.5333333333333333 0.5333333333333333 1 0.5333333333333333 0.5333333333333333 0.5333333333333333 1 0.5333333333333333 0.5333333333333333 0.5333333333333333 1 1 1 1 1 1 1 1 1 1 1 1 1 1 1 1 1</float_array>
                    <technique_common>
                        <accessor count="12" source="#colorarrayMesh0_1" stride="4">
                            <param name="R" type="float"/>
                            <param name="G" type="float"/>
                            <param name="B" type="float"/>
                            <param name="A" type="float"/>
                        </accessor>
                    </technique_common>
                </source>
                <vertices id="verticesMesh0_1">
                    <input semantic="POSITION" source="#pointsMesh0_1"/>
                </vertices>
                <polylist count="12" material="Material1">
                    <input offset="0" semantic="VERTEX" source="#verticesMesh0_1"/>
                    <input offset="1" semantic="TEXCOORD" source="#uvsMesh0_1" set="0"/>
                    <input offset="2" semantic="COLOR" source="#colorsMesh0_1" set="0"/>
                    <vcount>3 3 3 3 3 3 3 3 3 3 3 3</vcount>
                    <p>0 0 0 1 1 1 2 2 2 0 0 0 3 3 3 1 1 1 4 4 4 3 3 3 0 0 0 4 4 4 5 5 5 3 3 3 0 0 0 2 2 2 6 6 6 0 0 0 6 6 6 4 4 4 2 2 2 7 7 7 6 6 6 6 6 6 5 5 5 4 4 4 6 6 6 7 7 7 5 5 5 2 2 2 1 1 1 7 7 7 8 8 8 9 9 9 10 10 10 8 8 8 10 10 10 11 11 11</p>
                </polylist>
            </mesh>
        </geometry>
        <geometry id="meshMesh0_2">
            <mesh>
                <source id="pointsMesh0_2">
                    <float_array id="pointarrayMesh0_2" count="36">307 0 768 -306 102 819 -306 0 768 307 102 819 307 0 -767 307 102 -818 -306 0 -767 -306 102 -818 307 102 -818 -306 102 -818 -306 102 819 307 102 819</float_array>
                    <technique_common>
                        <accessor count="12" source="#pointarrayMesh0_2" stride="3">
                            <param name="X" type="float"/>
                            <param name="Y" type="float"/>
                            <param name="Z" type="float"/>
                        </accessor>
                    </technique_common>
                </source>
                <source id="uvsMesh0_2">
                    <float_array id="uvarrayMesh0_2" count="24">0 0.04296875 0 0.92578125 0 0.951171875 0 0.017578125 0.935546875 0.04296875 0.966796875 0.017578125 0.935546875 0.951171875 0.966796875 0.92578125 0.966796875 0.017578125 0.966796875 0.92578125 0 0.92578125 0 0.017578125</float_array>
                    <technique_common>
                        <accessor count="12" source="#uvarrayMesh0_2" stride="2">
                            <param name="S" type="float"/>
                            <param name="T" type="float"/>
                        </accessor>
                    </technique_common>
                </source>
                <source id="colorsMesh0_2">
                    <float_array id="colorarrayMesh0_2" count="48">0.13333333333333333 0.13333333333333333 0.13333333333333333 1 0.13333333333333333 0.13333333333333333 0.13333333333333333 1 0.13333333333333333 0.13333333333333333 0.13333333333333333 1 0.13333333333333333 0.13333333333333333 0.13333333333333333 1 0.13333333333333333 0.13333333333333333 0.13333333333333333 1 0.13333333333333333 0.13333333333333333 0.13333333333333333 1 0.13333333333333333 0.13333333333333333 0.13333333333333333 1 0.13333333333333333 0.13333333333333333 0.13333333333333333 1 0.24705882352941178 0.24705882352941178 0.24705882352941178 1 0.24705882352941178 0.24705882352941178 0.24705882352941178 1 0.24705882352941178 0.24705882352941178 0.24705882352941178 1 0.24705882352941178 0.24705882352941178 0.24705882352941178 1</float_array>
                    <technique_common>
                        <accessor count="12" source="#colorarrayMesh0_2" stride="4">
                            <param name="R" type="float"/>
                            <param name="G" type="float"/>
                            <param name="B" type="float"/>
                            <param name="A" type="float"/>
                        </accessor>
                    </technique_common>
                </source>
                <vertices id="verticesMesh0_2">
                    <input semantic="POSITION" source="#pointsMesh0_2"/>
                </vertices>
                <polylist count="12" material="Material1">
                    <input offset="0" semantic="VERTEX" source="#verticesMesh0_2"/>
                    <input offset="1" semantic="TEXCOORD" source="#uvsMesh0_2" set="0"/>
                    <input offset="2" semantic="COLOR" source="#colorsMesh0_2" set="0"/>
                    <vcount>3 3 3 3 3 3 3 3 3 3 3 3</vcount>
                    <p>0 0 0 1 1 1 2 2 2 0 0 0 3 3 3 1 1 1 4 4 4 3 3 3 0 0 0 4 4 4 5 5 5 3 3 3 0 0 0 2 2 2 6 6 6 0 0 0 6 6 6 4 4 4 2 2 2 7 7 7 6 6 6 6 6 6 5 5 5 4 4 4 6 6 6 7 7 7 5 5 5 2 2 2 1 1 1 7 7 7 8 8 8 9 9 9 10 10 10 8 8 8 10 10 10 11 11 11</p>
                </polylist>
            </mesh>
        </geometry>
    </library_geometries>
    <library_visual_scenes>
        <visual_scene id="VisualSceneNode">
            <node id="node_Node0" name="Node0_culling">
                <node id="node_Node1" name="Node1_display">
                    <node id="node_Node2" name="Node2_display">
                        <node id="node_Mesh0_1" name="Mesh0_light">
                            <instance_geometry url="#meshMesh0_1">
                                <bind_material>
                                    <technique_common>
                                        <instance_material symbol="Material1" target="#mat0">
                                            <bind_vertex_input semantic="UVSET0" input_semantic="TEXCOORD" input_set="0"/>
                                        </instance_material>
                                    </technique_common>
                                </bind_material>
                            </instance_geometry>
                        </node>
                        <node id="node_Mesh0_2" name="Mesh0_dark">
                            <instance_geometry url="#meshMesh0_2">
                                <bind_material>
                                    <technique_common>
                                        <instance_material symbol="Material1" target="#mat0">
                                            <bind_vertex_input semantic="UVSET0" input_semantic="TEXCOORD" input_set="0"/>
                                        </instance_material>
                                    </technique_common>
                                </bind_material>
                            </instance_geometry>
                        </node>
                    </node>
                </node>
            </node>
        </visual_scene>
    </library_visual_scenes>
    <scene>
        <instance_visual_scene url="#VisualSceneNode"/>
    </scene>
</COLLADA>
