<?xml version="1.0"?>
<COLLADA xmlns="http://www.collada.org/2005/11/COLLADASchema" version="1.4.1">
    <asset>
        <contributor>
            <authoring_tool>Supear Mardian SixDaeFour</authoring_tool>
        </contributor>
        <created>2026-03-09T03:31:58.111Z</created>
        <modified>2026-03-09T03:31:58.111Z</modified>
		<unit meter="0.01" name="centimeter" />
        <up_axis>Y_UP</up_axis>
    </asset>
    <library_images>
        <image id="tex_0">
            <init_from>tex_9007800.png</init_from>
        </image>
        <image id="tex_1">
            <init_from>tex_9001000.png</init_from>
        </image>
        <image id="tex_2">
            <init_from>tex_0.png</init_from>
        </image>
        <image id="tex_vertexColors">
            <init_from>vertexColors_tower.png</init_from>
        </image>
    </library_images>
    <library_effects>
        <effect id="effect0">
            <profile_COMMON>
                <newparam sid="surface0">
                    <surface type="2D">
                        <init_from>tex_0</init_from>
                    </surface>
                </newparam>
                <newparam sid="sampler0">
                    <sampler2D>
                        <source>surface0</source>
                    </sampler2D>
                </newparam>
                <technique sid="COMMON">
                    <blinn>
                        <diffuse>
                            <texture texture="sampler0" texcoord="UVSET0"></texture>
                        </diffuse>
                    </blinn>
                </technique>
            </profile_COMMON>
        </effect>
        <effect id="effect1">
            <profile_COMMON>
                <newparam sid="surface1">
                    <surface type="2D">
                        <init_from>tex_1</init_from>
                    </surface>
                </newparam>
                <newparam sid="sampler1">
                    <sampler2D>
                        <source>surface1</source>
                    </sampler2D>
                </newparam>
                <technique sid="COMMON">
                    <blinn>
                        <diffuse>
                            <texture texture="sampler1" texcoord="UVSET0"></texture>
                        </diffuse>
                    </blinn>
                </technique>
            </profile_COMMON>
        </effect>
        <effect id="effect2">
            <profile_COMMON>
                <newparam sid="surface2">
                    <surface type="2D">
                        <init_from>tex_2</init_from>
                    </surface>
                </newparam>
                <newparam sid="sampler2">
                    <sampler2D>
                        <source>surface2</source>
                    </sampler2D>
                </newparam>
                <technique sid="COMMON">
                    <blinn>
                        <diffuse>
                            <texture texture="sampler2" texcoord="UVSET0"></texture>
                        </diffuse>
                    </blinn>
                </technique>
            </profile_COMMON>
        </effect>
        <effect id="effect3">
            <profile_COMMON>
                <newparam sid="surface3">
                    <surface type="2D">
                        <init_from>tex_vertexColors</init_from>
                    </surface>
                </newparam>
                <newparam sid="sampler3">
                    <sampler2D>
                        <source>surface3</source>
                    </sampler2D>
                </newparam>
                <technique sid="COMMON">
                    <blinn>
                        <diffuse>
                            <texture texture="sampler3" texcoord="UVSET0"></texture>
                        </diffuse>
                    </blinn>
                </technique>
            </profile_COMMON>
        </effect>
    </library_effects>
    <library_materials>
        <material id="mat0" name="Mat0">
            <instance_effect url="#effect0"/>
        </material>
        <material id="mat1" name="Mat1">
            <instance_effect url="#effect1"/>
        </material>
        <material id="mat2" name="Mat2">
            <instance_effect url="#effect2"/>
        </material>
        <material id="mat3" name="vertexColors">
            <instance_effect url="#effect3"/>
        </material>
    </library_materials>
    <library_geometries>
        <geometry id="meshMesh0_1">
            <mesh>
                <source id="pointsMesh0_1">
                    <float_array id="pointarrayMesh0_1" count="231">349 3669 156 508 3431 227 359 3662 -375 555 2139 -518 562 2150 244 937 1751 -654 945 1751 384 562 2150 244 307 2154 551 945 1751 384 466 1751 926 -306 2154 551 -465 1751 926 307 2154 551 466 1751 926 509 3430 -487 349 3669 156 202 3672 340 508 3431 227 282 3431 503 202 3672 340 -201 3672 340 282 3431 503 -281 3431 503 0 4741 -96 349 3669 156 359 3662 -375 0 4741 -96 202 3672 340 349 3669 156 0 4741 -96 -201 3672 340 202 3672 340 0 4741 -96 0 3660 -546 -358 3662 -375 0 2136 -792 0 1751 -1195 -554 2139 -518 -936 1751 -654 0 3660 -546 0 3431 -733 -358 3662 -375 -508 3430 -487 0 3660 -546 359 3662 -375 0 3431 -733 509 3430 -487 0 4741 -96 -358 3662 -375 -348 3669 156 -561 2150 244 -936 1751 -654 -944 1751 384 -554 2139 -518 0 2136 -792 555 2139 -518 0 1751 -1195 937 1751 -654 -348 3669 156 -358 3662 -375 -507 3431 227 -508 3430 -487 -561 2150 244 -944 1751 384 -306 2154 551 -465 1751 926 -348 3669 156 -507 3431 227 -201 3672 340 -281 3431 503 0 4741 -96 -348 3669 156 -201 3672 340 0 4741 -96 359 3662 -375 0 3660 -546</float_array>
                    <technique_common>
                        <accessor count="77" source="#pointarrayMesh0_1" stride="3">
                            <param name="X" type="float"/>
                            <param name="Y" type="float"/>
                            <param name="Z" type="float"/>
                        </accessor>
                    </technique_common>
                </source>
                <source id="uvsMesh0_1">
                    <float_array id="uvarrayMesh0_1" count="154">0.193359375 0.6796875 0 0.033203125 1.921875 0.642578125 2.904296875 1.4375 0.42578125 1.427734375 3.345703125 0.033203125 0 0.033203125 1.830078125 1.416015625 0.53125 1.3828125 2.318359375 0.033203125 0 0.033203125 0.484375 1.400390625 0 0.033203125 2.478515625 1.400390625 2.99609375 0.033203125 2.2890625 0.033203125 0.974609375 0.701171875 0.208984375 0.689453125 1.12890625 0.033203125 0 0.033203125 1.54296875 0.681640625 0.228515625 0.681640625 1.80078125 0.033203125 0 0.033203125 0.7109375 3.2890625 0 0.033203125 1.697265625 0.033203125 0.966796875 3.373046875 0.201171875 0.046875 0.966796875 0.033203125 0.625 3.3828125 0 0.033203125 1.283203125 0.033203125 0.630859375 3.376953125 0 0.033203125 1.26171875 0.033203125 0.626953125 1.1328125 0 0.033203125 2.634765625 1.00390625 3.482421875 0.033203125 0.234375 0.6875 0 0.033203125 1.52734375 0.6875 1.806640625 0.033203125 1.541015625 0.6875 0.248046875 0.6875 1.806640625 0.033203125 0 0.033203125 0.955078125 3.2890625 0 0.033203125 1.697265625 0.033203125 2.837890625 1.427734375 -0.080078125 0.033203125 3.294921875 0.033203125 0.359375 1.4375 2.82421875 1.33984375 0.81640625 1.236328125 3.482421875 0.033203125 0 0.033203125 2.064453125 0.6796875 0.3359375 0.642578125 2.2890625 0.033203125 0 0.033203125 0.45703125 1.416015625 0 0.033203125 1.755859375 1.3828125 2.318359375 0.033203125 0.12109375 0.701171875 0 0.033203125 0.88671875 0.689453125 1.12890625 0.033203125 0.025390625 3.373046875 0 0.033203125 0.734375 0.033203125 0.59765625 3.376953125 0 0.033203125 1.26171875 0.033203125</float_array>
                    <technique_common>
                        <accessor count="77" source="#uvarrayMesh0_1" stride="2">
                            <param name="S" type="float"/>
                            <param name="T" type="float"/>
                        </accessor>
                    </technique_common>
                </source>
                <vertices id="verticesMesh0_1">
                    <input semantic="POSITION" source="#pointsMesh0_1"/>
                </vertices>
                <polylist count="35" material="Material1">
                    <input offset="0" semantic="VERTEX" source="#verticesMesh0_1"/>
                    <input offset="1" semantic="TEXCOORD" source="#uvsMesh0_1" set="0"/>
                    <vcount>3 3 3 3 3 3 3 3 3 3 3 3 3 3 3 3 3 3 3 3 3 3 3 3 3 3 3 3 3 3 3 3 3 3 3</vcount>
                    <p>0 0 1 1 2 2 3 3 4 4 5 5 4 4 6 6 5 5 7 7 8 8 9 9 8 8 10 10 9 9 11 11 12 12 13 13 13 13 12 12 14 14 2 2 1 1 15 15 16 16 17 17 18 18 17 17 19 19 18 18 20 20 21 21 22 22 21 21 23 23 22 22 24 24 25 25 26 26 27 27 28 28 29 29 30 30 31 31 32 32 33 33 34 34 35 35 36 36 37 37 38 38 38 38 37 37 39 39 40 40 41 41 42 42 42 42 41 41 43 43 44 44 45 45 46 46 45 45 47 47 46 46 48 48 49 49 50 50 51 51 52 52 53 53 54 54 52 52 51 51 55 55 56 56 57 57 56 56 58 58 57 57 59 59 60 60 61 61 60 60 62 62 61 61 63 63 64 64 65 65 65 65 64 64 66 66 67 67 68 68 69 69 69 69 68 68 70 70 71 71 72 72 73 73 74 74 75 75 76 76</p>
                </polylist>
            </mesh>
        </geometry>
        <geometry id="meshMesh0_VC1">
            <mesh>
                <source id="pointsMesh0_VC1">
                    <float_array id="pointarrayMesh0_VC1" count="231">349 3669 156 508 3431 227 359 3662 -375 555 2139 -518 562 2150 244 937 1751 -654 945 1751 384 562 2150 244 307 2154 551 945 1751 384 466 1751 926 -306 2154 551 -465 1751 926 307 2154 551 466 1751 926 509 3430 -487 349 3669 156 202 3672 340 508 3431 227 282 3431 503 202 3672 340 -201 3672 340 282 3431 503 -281 3431 503 0 4741 -96 349 3669 156 359 3662 -375 0 4741 -96 202 3672 340 349 3669 156 0 4741 -96 -201 3672 340 202 3672 340 0 4741 -96 0 3660 -546 -358 3662 -375 0 2136 -792 0 1751 -1195 -554 2139 -518 -936 1751 -654 0 3660 -546 0 3431 -733 -358 3662 -375 -508 3430 -487 0 3660 -546 359 3662 -375 0 3431 -733 509 3430 -487 0 4741 -96 -358 3662 -375 -348 3669 156 -561 2150 244 -936 1751 -654 -944 1751 384 -554 2139 -518 0 2136 -792 555 2139 -518 0 1751 -1195 937 1751 -654 -348 3669 156 -358 3662 -375 -507 3431 227 -508 3430 -487 -561 2150 244 -944 1751 384 -306 2154 551 -465 1751 926 -348 3669 156 -507 3431 227 -201 3672 340 -281 3431 503 0 4741 -96 -348 3669 156 -201 3672 340 0 4741 -96 359 3662 -375 0 3660 -546</float_array>
                    <technique_common>
                        <accessor count="77" source="#pointarrayMesh0_VC1" stride="3">
                            <param name="X" type="float"/>
                            <param name="Y" type="float"/>
                            <param name="Z" type="float"/>
                        </accessor>
                    </technique_common>
                </source>
                <source id="uvsMesh0_VC1">
                    <float_array id="uvarrayMesh0_VC1" count="210">0.03125 0.75 0.03125 0.75 0.03125 0.75 0.03125 0.75 0.03125 0.75 0.03125 0.75 0.03125 0.75 0.03125 0.75 0.03125 0.75 0.03125 0.75 0.03125 0.75 0.03125 0.75 0.03125 0.75 0.03125 0.75 0.03125 0.75 0.03125 0.75 0.03125 0.75 0.03125 0.75 0.03125 0.75 0.03125 0.75 0.03125 0.75 0.03125 0.75 0.03125 0.75 0.03125 0.75 0.03125 0.75 0.03125 0.75 0.03125 0.75 0.03125 0.75 0.03125 0.75 0.03125 0.75 0.03125 0.75 0.03125 0.75 0.03125 0.75 0.03125 0.75 0.03125 0.75 0.03125 0.75 0.03125 0.75 0.03125 0.75 0.03125 0.75 0.03125 0.75 0.03125 0.75 0.03125 0.75 0.03125 0.75 0.03125 0.75 0.03125 0.75 0.15625 0.75 0.15625 0.75 0.15625 0.75 0.15625 0.75 0.15625 0.75 0.15625 0.75 0.15625 0.75 0.15625 0.75 0.15625 0.75 0.15625 0.75 0.15625 0.75 0.15625 0.75 0.15625 0.75 0.15625 0.75 0.15625 0.75 0.28125 0.75 0.28125 0.75 0.28125 0.75 0.28125 0.75 0.28125 0.75 0.28125 0.75 0.40625 0.75 0.40625 0.75 0.40625 0.75 0.40625 0.75 0.40625 0.75 0.40625 0.75 0.40625 0.75 0.40625 0.75 0.40625 0.75 0.40625 0.75 0.40625 0.75 0.40625 0.75 0.40625 0.75 0.40625 0.75 0.40625 0.75 0.40625 0.75 0.40625 0.75 0.40625 0.75 0.40625 0.75 0.40625 0.75 0.40625 0.75 0.53125 0.75 0.53125 0.75 0.53125 0.75 0.53125 0.75 0.53125 0.75 0.53125 0.75 0.53125 0.75 0.53125 0.75 0.53125 0.75 0.53125 0.75 0.53125 0.75 0.53125 0.75 0.53125 0.75 0.53125 0.75 0.53125 0.75 0.53125 0.75 0.53125 0.75 0.53125 0.75</float_array>
                    <technique_common>
                        <accessor count="105" source="#uvarrayMesh0_VC1" stride="2">
                            <param name="S" type="float"/>
                            <param name="T" type="float"/>
                        </accessor>
                    </technique_common>
                </source>
                <vertices id="verticesMesh0_VC1">
                    <input semantic="POSITION" source="#pointsMesh0_VC1"/>
                </vertices>
                <polylist count="35" material="Material1">
                    <input offset="0" semantic="VERTEX" source="#verticesMesh0_VC1"/>
                    <input offset="1" semantic="TEXCOORD" source="#uvsMesh0_VC1" set="0"/>
                    <vcount>3 3 3 3 3 3 3 3 3 3 3 3 3 3 3 3 3 3 3 3 3 3 3 3 3 3 3 3 3 3 3 3 3 3 3</vcount>
                    <p>0 0 1 1 2 2 3 3 4 4 5 5 4 6 6 7 5 8 7 9 8 10 9 11 8 12 10 13 9 14 11 15 12 16 13 17 13 18 12 19 14 20 2 21 1 22 15 23 16 24 17 25 18 26 17 27 19 28 18 29 20 30 21 31 22 32 21 33 23 34 22 35 24 36 25 37 26 38 27 39 28 40 29 41 30 42 31 43 32 44 33 45 34 46 35 47 36 48 37 49 38 50 38 51 37 52 39 53 40 54 41 55 42 56 42 57 41 58 43 59 44 60 45 61 46 62 45 63 47 64 46 65 48 66 49 67 50 68 51 69 52 70 53 71 54 72 52 73 51 74 55 75 56 76 57 77 56 78 58 79 57 80 59 81 60 82 61 83 60 84 62 85 61 86 63 87 64 88 65 89 65 90 64 91 66 92 67 93 68 94 69 95 69 96 68 97 70 98 71 99 72 100 73 101 74 102 75 103 76 104</p>
                </polylist>
            </mesh>
        </geometry>
        <geometry id="meshMesh1_1">
            <mesh>
                <source id="pointsMesh1_1">
                    <float_array id="pointarrayMesh1_1" count="168">-936 1751 -654 0 1751 -1195 0 0 -1195 937 0 -654 0 1751 -1195 937 1751 -654 0 0 -1195 555 2139 -518 0 2136 -792 509 3430 -487 0 3431 -733 945 1751 384 466 1751 926 945 0 384 466 0 926 508 3431 227 307 2154 551 562 2150 244 282 3431 503 -508 3430 -487 0 3431 -733 -554 2139 -518 -936 0 -654 0 2136 -792 -944 1751 384 -936 0 -654 -944 0 384 -936 1751 -654 -508 3430 -487 -554 2139 -518 -507 3431 227 -561 2150 244 509 3430 -487 508 3431 227 555 2139 -518 937 1751 -654 945 0 384 937 0 -654 945 1751 384 -944 0 384 -465 0 926 -944 1751 384 -465 1751 926 -507 3431 227 -561 2150 244 -306 2154 551 -281 3431 503 562 2150 244 466 1751 926 -465 0 926 466 0 926 -465 1751 926 282 3431 503 -306 2154 551 307 2154 551 -281 3431 503</float_array>
                    <technique_common>
                        <accessor count="56" source="#pointarrayMesh1_1" stride="3">
                            <param name="X" type="float"/>
                            <param name="Y" type="float"/>
                            <param name="Z" type="float"/>
                        </accessor>
                    </technique_common>
                </source>
                <source id="uvsMesh1_1">
                    <float_array id="uvarrayMesh1_1" count="112">0.982421875 8.56640625 -1.650390625 8.56640625 -1.650390625 0.033203125 0.234375 0.033203125 2.869140625 8.56640625 0.234375 8.56640625 2.869140625 0.033203125 0 0.033203125 1.4921875 0.033203125 0.03125 6.330078125 1.41015625 6.3515625 1.74609375 8.56640625 0 8.56640625 1.74609375 0.033203125 0 0.033203125 0.873046875 6.279296875 0 0.033203125 0.958984375 0.033203125 0.00390625 6.26171875 1.1953125 6.330078125 -0.1796875 6.3515625 1.2421875 0.033203125 0.982421875 0.033203125 -0.263671875 0.033203125 0.982421875 8.56640625 -1.548828125 0.033203125 0.982421875 0.033203125 -1.548828125 8.56640625 0.3515625 6.326171875 0.234375 0.033203125 2.091796875 6.283203125 2.091796875 0.033203125 1.7265625 6.326171875 0 6.283203125 1.841796875 0.033203125 2.267578125 8.56640625 -0.263671875 0.033203125 2.267578125 0.033203125 -0.263671875 8.56640625 -0.77734375 0.033203125 0.982421875 0.033203125 -0.77734375 8.56640625 0.982421875 8.56640625 0.0703125 6.279296875 0 0.033203125 0.958984375 0.033203125 0.939453125 6.26171875 0 0.033203125 0.982421875 8.56640625 -1.28515625 0.033203125 0.982421875 0.033203125 -1.28515625 8.56640625 1.419921875 6.26171875 0 0.033203125 1.48046875 0.033203125 0.044921875 6.26171875</float_array>
                    <technique_common>
                        <accessor count="56" source="#uvarrayMesh1_1" stride="2">
                            <param name="S" type="float"/>
                            <param name="T" type="float"/>
                        </accessor>
                    </technique_common>
                </source>
                <vertices id="verticesMesh1_1">
                    <input semantic="POSITION" source="#pointsMesh1_1"/>
                </vertices>
                <polylist count="28" material="Material1">
                    <input offset="0" semantic="VERTEX" source="#verticesMesh1_1"/>
                    <input offset="1" semantic="TEXCOORD" source="#uvsMesh1_1" set="0"/>
                    <vcount>3 3 3 3 3 3 3 3 3 3 3 3 3 3 3 3 3 3 3 3 3 3 3 3 3 3 3 3</vcount>
                    <p>0 0 1 1 2 2 3 3 4 4 5 5 3 3 6 6 4 4 7 7 8 8 9 9 8 8 10 10 9 9 11 11 12 12 13 13 13 13 12 12 14 14 15 15 16 16 17 17 18 18 16 16 15 15 19 19 20 20 21 21 0 0 2 2 22 22 20 20 23 23 21 21 24 24 25 25 26 26 27 27 25 25 24 24 28 28 29 29 30 30 30 30 29 29 31 31 32 32 33 33 34 34 35 35 36 36 37 37 38 38 36 36 35 35 39 39 40 40 41 41 41 41 40 40 42 42 43 43 44 44 45 45 46 46 43 43 45 45 33 33 47 47 34 34 48 48 49 49 50 50 51 51 49 49 48 48 52 52 53 53 54 54 55 55 53 53 52 52</p>
                </polylist>
            </mesh>
        </geometry>
        <geometry id="meshMesh1_VC1">
            <mesh>
                <source id="pointsMesh1_VC1">
                    <float_array id="pointarrayMesh1_VC1" count="168">-936 1751 -654 0 1751 -1195 0 0 -1195 937 0 -654 0 1751 -1195 937 1751 -654 0 0 -1195 555 2139 -518 0 2136 -792 509 3430 -487 0 3431 -733 945 1751 384 466 1751 926 945 0 384 466 0 926 508 3431 227 307 2154 551 562 2150 244 282 3431 503 -508 3430 -487 0 3431 -733 -554 2139 -518 -936 0 -654 0 2136 -792 -944 1751 384 -936 0 -654 -944 0 384 -936 1751 -654 -508 3430 -487 -554 2139 -518 -507 3431 227 -561 2150 244 509 3430 -487 508 3431 227 555 2139 -518 937 1751 -654 945 0 384 937 0 -654 945 1751 384 -944 0 384 -465 0 926 -944 1751 384 -465 1751 926 -507 3431 227 -561 2150 244 -306 2154 551 -281 3431 503 562 2150 244 466 1751 926 -465 0 926 466 0 926 -465 1751 926 282 3431 503 -306 2154 551 307 2154 551 -281 3431 503</float_array>
                    <technique_common>
                        <accessor count="56" source="#pointarrayMesh1_VC1" stride="3">
                            <param name="X" type="float"/>
                            <param name="Y" type="float"/>
                            <param name="Z" type="float"/>
                        </accessor>
                    </technique_common>
                </source>
                <source id="uvsMesh1_VC1">
                    <float_array id="uvarrayMesh1_VC1" count="168">0.15625 0.75 0.15625 0.75 0.15625 0.75 0.40625 0.75 0.40625 0.75 0.40625 0.75 0.40625 0.75 0.40625 0.75 0.40625 0.75 0.40625 0.75 0.40625 0.75 0.40625 0.75 0.40625 0.75 0.40625 0.75 0.40625 0.75 0.03125 0.75 0.03125 0.75 0.03125 0.75 0.03125 0.75 0.03125 0.75 0.03125 0.75 0.03125 0.75 0.03125 0.75 0.03125 0.75 0.03125 0.75 0.03125 0.75 0.03125 0.75 0.15625 0.75 0.15625 0.75 0.15625 0.75 0.15625 0.75 0.15625 0.75 0.15625 0.75 0.15625 0.75 0.15625 0.75 0.15625 0.75 0.40625 0.75 0.40625 0.75 0.40625 0.75 0.40625 0.75 0.40625 0.75 0.40625 0.75 0.40625 0.75 0.40625 0.75 0.40625 0.75 0.40625 0.75 0.40625 0.75 0.40625 0.75 0.53125 0.75 0.53125 0.75 0.53125 0.75 0.53125 0.75 0.53125 0.75 0.53125 0.75 0.53125 0.75 0.53125 0.75 0.53125 0.75 0.53125 0.75 0.53125 0.75 0.53125 0.75 0.53125 0.75 0.53125 0.75 0.53125 0.75 0.53125 0.75 0.53125 0.75 0.53125 0.75 0.53125 0.75 0.53125 0.75 0.53125 0.75 0.53125 0.75 0.53125 0.75 0.53125 0.75 0.03125 0.75 0.03125 0.75 0.03125 0.75 0.03125 0.75 0.03125 0.75 0.03125 0.75 0.03125 0.75 0.03125 0.75 0.03125 0.75 0.03125 0.75 0.03125 0.75 0.03125 0.75</float_array>
                    <technique_common>
                        <accessor count="84" source="#uvarrayMesh1_VC1" stride="2">
                            <param name="S" type="float"/>
                            <param name="T" type="float"/>
                        </accessor>
                    </technique_common>
                </source>
                <vertices id="verticesMesh1_VC1">
                    <input semantic="POSITION" source="#pointsMesh1_VC1"/>
                </vertices>
                <polylist count="28" material="Material1">
                    <input offset="0" semantic="VERTEX" source="#verticesMesh1_VC1"/>
                    <input offset="1" semantic="TEXCOORD" source="#uvsMesh1_VC1" set="0"/>
                    <vcount>3 3 3 3 3 3 3 3 3 3 3 3 3 3 3 3 3 3 3 3 3 3 3 3 3 3 3 3</vcount>
                    <p>0 0 1 1 2 2 3 3 4 4 5 5 3 6 6 7 4 8 7 9 8 10 9 11 8 12 10 13 9 14 11 15 12 16 13 17 13 18 12 19 14 20 15 21 16 22 17 23 18 24 16 25 15 26 19 27 20 28 21 29 0 30 2 31 22 32 20 33 23 34 21 35 24 36 25 37 26 38 27 39 25 40 24 41 28 42 29 43 30 44 30 45 29 46 31 47 32 48 33 49 34 50 35 51 36 52 37 53 38 54 36 55 35 56 39 57 40 58 41 59 41 60 40 61 42 62 43 63 44 64 45 65 46 66 43 67 45 68 33 69 47 70 34 71 48 72 49 73 50 74 51 75 49 76 48 77 52 78 53 79 54 80 55 81 53 82 52 83</p>
                </polylist>
            </mesh>
        </geometry>
        <geometry id="meshMesh2_VC1">
            <mesh>
                <source id="pointsMesh2_VC1">
                    <float_array id="pointarrayMesh2_VC1" count="15">26 4639 -96 0 5253 -96 0 4639 -76 0 4639 -117 -25 4639 -96</float_array>
                    <technique_common>
                        <accessor count="5" source="#pointarrayMesh2_VC1" stride="3">
                            <param name="X" type="float"/>
                            <param name="Y" type="float"/>
                            <param name="Z" type="float"/>
                        </accessor>
                    </technique_common>
                </source>
                <source id="uvsMesh2_VC1">
                    <float_array id="uvarrayMesh2_VC1" count="24">0.65625 0.75 0.65625 0.75 0.65625 0.75 0.65625 0.75 0.65625 0.75 0.65625 0.75 0.65625 0.75 0.65625 0.75 0.65625 0.75 0.65625 0.75 0.65625 0.75 0.65625 0.75</float_array>
                    <technique_common>
                        <accessor count="12" source="#uvarrayMesh2_VC1" stride="2">
                            <param name="S" type="float"/>
                            <param name="T" type="float"/>
                        </accessor>
                    </technique_common>
                </source>
                <vertices id="verticesMesh2_VC1">
                    <input semantic="POSITION" source="#pointsMesh2_VC1"/>
                </vertices>
                <polylist count="4" material="Material1">
                    <input offset="0" semantic="VERTEX" source="#verticesMesh2_VC1"/>
                    <input offset="1" semantic="TEXCOORD" source="#uvsMesh2_VC1" set="0"/>
                    <vcount>3 3 3 3</vcount>
                    <p>0 0 1 1 2 2 1 3 0 4 3 5 1 6 4 7 2 8 4 9 1 10 3 11</p>
                </polylist>
            </mesh>
        </geometry>
    </library_geometries>
    <library_visual_scenes>
        <visual_scene id="VisualSceneNode">
            <node id="node_Node0" name="Node0_culling">
                <node id="node_Node1" name="Node1_display">
                    <node id="node_Node2" name="Node2_display">
                        <node id="node_Mesh0_1" name="Mesh0">
                            <instance_geometry url="#meshMesh0_1">
                                <bind_material>
                                    <technique_common>
                                        <instance_material symbol="Material1" target="#mat0">
                                            <bind_vertex_input semantic="UVSET0" input_semantic="TEXCOORD" input_set="0"/>
                                        </instance_material>
                                    </technique_common>
                                </bind_material>
                            </instance_geometry>
                        </node>
                        <node id="node_Mesh0_VC1" name="Mesh0_VC">
                            <instance_geometry url="#meshMesh0_VC1">
                                <bind_material>
                                    <technique_common>
                                        <instance_material symbol="Material1" target="#mat3">
                                            <bind_vertex_input semantic="UVSET0" input_semantic="TEXCOORD" input_set="0"/>
                                        </instance_material>
                                    </technique_common>
                                </bind_material>
                            </instance_geometry>
                        </node>
                        <node id="node_Mesh1_1" name="Mesh1">
                            <instance_geometry url="#meshMesh1_1">
                                <bind_material>
                                    <technique_common>
                                        <instance_material symbol="Material1" target="#mat1">
                                            <bind_vertex_input semantic="UVSET0" input_semantic="TEXCOORD" input_set="0"/>
                                        </instance_material>
                                    </technique_common>
                                </bind_material>
                            </instance_geometry>
                        </node>
                        <node id="node_Mesh1_VC1" name="Mesh1_VC">
                            <instance_geometry url="#meshMesh1_VC1">
                                <bind_material>
                                    <technique_common>
                                        <instance_material symbol="Material1" target="#mat3">
                                            <bind_vertex_input semantic="UVSET0" input_semantic="TEXCOORD" input_set="0"/>
                                        </instance_material>
                                    </technique_common>
                                </bind_material>
                            </instance_geometry>
                        </node>
                        <node id="node_Mesh2_VC1" name="Mesh2_VC">
                            <instance_geometry url="#meshMesh2_VC1">
                                <bind_material>
                                    <technique_common>
                                        <instance_material symbol="Material1" target="#mat3">
                                            <bind_vertex_input semantic="UVSET0" input_semantic="TEXCOORD" input_set="0"/>
                                        </instance_material>
                                    </technique_common>
                                </bind_material>
                            </instance_geometry>
                        </node>
                    </node>
                </node>
            </node>
        </visual_scene>
    </library_visual_scenes>
    <scene>
        <instance_visual_scene url="#VisualSceneNode"/>
    </scene>
</COLLADA>
