# Blender 5.0.0
# www.blender.org
mtllib WCBox.mtl
o Cube
v 1.000000 1.000000 -1.000000
v 1.000000 -1.000000 -1.000000
v 1.000000 1.000000 1.000000
v 1.000000 -1.000000 1.000000
v -1.000000 1.000000 -1.000000
v -1.000000 -1.000000 -1.000000
v -1.000000 1.000000 1.000000
v -1.000000 -1.000000 1.000000
vn -0.0000 1.0000 -0.0000
vn -0.0000 -0.0000 1.0000
vn -1.0000 -0.0000 -0.0000
vn -0.0000 -1.0000 -0.0000
vn 1.0000 -0.0000 -0.0000
vn -0.0000 -0.0000 -1.0000
vt -0.000403 0.001953
vt 0.997644 0.001953
vt 0.997644 1.000000
vt -0.000403 1.000000
vt 0.997070 0.000977
vt 0.999023 0.999023
vt -0.000976 0.999023
vt -0.000977 0.000977
vt 0.997822 0.000775
vt 0.996272 0.996420
vt 0.002178 0.996420
vt 0.000628 0.000775
vt 0.000688 0.000000
vt 1.000688 0.001953
vt 0.998735 1.001953
vt -0.001265 1.000000
vt 0.998047 0.001953
vt 0.998047 1.000000
vt 0.000000 1.000000
vt 0.001953 0.001953
vt 0.001403 0.001969
vt -0.001698 0.997613
vt 0.995497 0.999163
vt 0.998597 0.001969
s 0
usemtl Material
f 4/5/2 3/6/2 7/7/2 8/8/2
f 8/9/3 7/10/3 5/11/3 6/12/3
f 2/17/5 1/18/5 3/19/5 4/20/5
f 6/21/6 5/22/6 1/23/6 2/24/6
usemtl Material.001
f 1/1/1 5/2/1 7/3/1 3/4/1
f 6/13/4 2/14/4 4/15/4 8/16/4
